<svg version="1.1" id="Layer_1" xmlns="http://www.w3.org/2000/svg" xmlns:xlink="http://www.w3.org/1999/xlink" x="0px" y="0px"
	 width="100%" viewBox="0 0 469 140" enable-background="new 0 0 469 140" xml:space="preserve">
<path fill="#FEFEFF" opacity="1.000000" stroke="none" 
	d="
M334.000000,141.000000 
	C222.666702,141.000000 111.833397,141.000000 1.000074,141.000000 
	C1.000050,94.333382 1.000050,47.666759 1.000025,1.000106 
	C157.333237,1.000070 313.666473,1.000070 469.999817,1.000035 
	C469.999878,47.666561 469.999878,94.333122 469.999939,140.999847 
	C424.833344,141.000000 379.666656,141.000000 334.000000,141.000000 
M253.871460,72.500092 
	C253.871460,85.889725 253.871460,99.279358 253.871460,112.551338 
	C258.631958,112.551338 262.557526,112.551338 266.954712,112.551338 
	C266.954712,104.740211 266.954712,97.209831 266.954712,89.372810 
	C277.185120,96.257057 287.543579,95.403320 294.225128,87.492630 
	C301.502838,78.876099 301.405731,64.256065 294.017212,56.192760 
	C286.743500,48.254753 276.226807,47.882553 266.108276,55.418911 
	C265.933563,53.896557 265.777802,52.539227 265.630005,51.251328 
	C261.566925,51.251328 257.829041,51.251328 253.871429,51.251328 
	C253.871429,58.217350 253.871429,64.858742 253.871460,72.500092 
M98.003265,87.281830 
	C106.833160,95.099052 117.080009,96.132217 127.885292,92.983994 
	C136.533890,90.464149 141.365204,83.648872 141.595108,74.832291 
	C141.810974,66.554100 137.942261,61.551384 128.606003,58.199898 
	C125.327446,57.022980 121.937180,56.149689 118.684380,54.910770 
	C115.597755,53.735146 112.257561,51.651974 113.701775,48.132629 
	C114.654404,45.811237 118.090874,43.281513 120.580780,43.098579 
	C124.584915,42.804382 128.725922,44.373096 133.446716,45.276756 
	C135.603271,42.915195 138.391785,39.861626 141.174454,36.814445 
	C131.589783,27.580475 113.140549,27.829609 104.284340,37.118473 
	C95.442566,46.392189 98.219398,59.986797 110.057236,64.869888 
	C114.038452,66.512138 118.259201,67.571770 122.248131,69.197823 
	C125.391510,70.479187 128.557068,72.328629 127.874718,76.421989 
	C127.174568,80.622231 123.494133,82.229294 120.011635,81.803482 
	C115.333466,81.231476 110.812973,79.369843 105.411072,77.829819 
	C103.467255,80.062798 100.636726,83.314400 98.003265,87.281830 
M190.556580,67.920860 
	C190.328552,65.769554 190.254959,63.588299 189.844666,61.472332 
	C188.381638,53.927376 183.973923,49.712631 176.420609,50.128918 
	C171.844879,50.381100 167.372406,52.506664 162.715363,53.829826 
	C162.715363,45.863537 162.715363,36.796665 162.715363,27.840057 
	C158.246948,27.840057 154.209183,27.840057 150.335327,27.840057 
	C150.335327,49.788826 150.335327,71.333702 150.335327,92.632912 
	C154.766891,92.632912 158.829407,92.632912 162.998901,92.632912 
	C162.998901,85.439140 162.937317,78.618553 163.037628,71.800362 
	C163.066528,69.836189 163.355072,67.820686 163.887238,65.930840 
	C164.915619,62.278751 167.867584,61.117859 171.255432,61.312302 
	C174.661911,61.507816 176.816254,63.549122 177.058701,67.029747 
	C177.358856,71.338715 177.456329,75.664841 177.533173,79.985474 
	C177.608978,84.248230 177.549744,88.513382 177.549744,92.631538 
	C182.244385,92.631538 186.302063,92.631538 190.589859,92.631538 
	C190.589859,84.452675 190.589859,76.647743 190.556580,67.920860 
M380.435883,51.492065 
	C377.495422,60.203415 374.554962,68.914764 371.312073,78.522171 
	C370.312714,76.220657 369.626434,74.759064 369.035980,73.259727 
	C366.483490,66.777992 364.029938,60.255760 361.358490,53.823814 
	C360.882019,52.676643 359.606964,51.149200 358.593536,51.063511 
	C354.745148,50.738110 350.852844,50.932426 346.302612,50.932426 
	C352.203857,64.550644 357.761200,77.295532 363.248505,90.070518 
	C366.144897,96.813713 361.286896,103.509827 354.017090,102.845093 
	C352.427368,102.699745 350.861328,102.295944 349.005707,101.960846 
	C348.439545,105.492233 347.923950,108.708176 347.274506,112.758934 
	C351.613434,113.133125 355.522308,113.806808 359.416290,113.729591 
	C365.743530,113.604141 370.506378,110.809258 372.923431,104.582047 
	C379.585571,87.417892 386.332367,70.286591 393.020233,53.132381 
	C393.246735,52.551380 393.200439,51.864017 393.302582,51.058456 
	C389.144287,51.058456 385.167755,51.058456 380.435883,51.492065 
M225.958176,50.111427 
	C223.466949,50.075268 220.962662,49.857182 218.486832,50.035221 
	C209.019287,50.716038 201.151535,57.161526 198.933533,65.894501 
	C196.406982,75.842262 199.683884,85.253586 207.979568,90.257240 
	C216.815506,95.586769 226.064743,95.633888 234.907715,90.334335 
	C243.045090,85.457642 246.075943,77.688683 244.722031,68.544380 
	C243.210892,58.338196 236.662613,52.550694 225.958176,50.111427 
M334.456177,93.004692 
	C337.231659,93.004692 340.007172,93.004692 342.843567,93.004692 
	C342.843567,89.308441 342.843567,86.188164 342.843567,82.429939 
	C335.523041,82.429939 328.363892,82.429939 319.870667,82.429939 
	C326.030396,77.240463 330.705048,72.387764 336.230988,68.873802 
	C343.435364,64.292526 343.187317,58.093887 342.159546,51.301361 
	C330.008789,51.301361 318.106598,51.301361 306.370667,51.301361 
	C306.370667,54.770954 306.370667,57.861473 306.370667,61.452354 
	C313.180145,61.452354 319.676605,61.452354 327.189545,61.452354 
	C320.284424,67.377731 314.185974,72.519775 308.219666,77.810867 
	C307.084106,78.817902 305.869934,80.355942 305.734558,81.750206 
	C305.384613,85.354004 305.617310,89.014381 305.617310,93.004692 
	C315.189362,93.004692 324.327240,93.004692 334.456177,93.004692 
z"/>
<path fill="#1C04AE" opacity="1.000000" stroke="none" 
	d="
M253.871445,72.000114 
	C253.871429,64.858742 253.871429,58.217350 253.871429,51.251328 
	C257.829041,51.251328 261.566925,51.251328 265.630005,51.251328 
	C265.777802,52.539227 265.933563,53.896557 266.108276,55.418911 
	C276.226807,47.882553 286.743500,48.254753 294.017212,56.192760 
	C301.405731,64.256065 301.502838,78.876099 294.225128,87.492630 
	C287.543579,95.403320 277.185120,96.257057 266.954712,89.372810 
	C266.954712,97.209831 266.954712,104.740211 266.954712,112.551338 
	C262.557526,112.551338 258.631958,112.551338 253.871460,112.551338 
	C253.871460,99.279358 253.871460,85.889725 253.871445,72.000114 
M286.615814,72.384102 
	C286.536774,71.556984 286.526428,70.716438 286.367828,69.904869 
	C285.195740,63.907677 280.811584,60.601845 274.952057,61.263531 
	C269.328644,61.898548 265.892334,65.910263 265.865753,71.871315 
	C265.838745,77.940521 269.094910,81.828934 274.804626,82.545799 
	C281.032349,83.327698 285.025177,80.130882 286.615814,72.384102 
z"/>
<path fill="#1D06AF" opacity="1.000000" stroke="none" 
	d="
M97.904732,86.923920 
	C100.636726,83.314400 103.467255,80.062798 105.411072,77.829819 
	C110.812973,79.369843 115.333466,81.231476 120.011635,81.803482 
	C123.494133,82.229294 127.174568,80.622231 127.874718,76.421989 
	C128.557068,72.328629 125.391510,70.479187 122.248131,69.197823 
	C118.259201,67.571770 114.038452,66.512138 110.057236,64.869888 
	C98.219398,59.986797 95.442566,46.392189 104.284340,37.118473 
	C113.140549,27.829609 131.589783,27.580475 141.174454,36.814445 
	C138.391785,39.861626 135.603271,42.915195 133.446716,45.276756 
	C128.725922,44.373096 124.584915,42.804382 120.580780,43.098579 
	C118.090874,43.281513 114.654404,45.811237 113.701775,48.132629 
	C112.257561,51.651974 115.597755,53.735146 118.684380,54.910770 
	C121.937180,56.149689 125.327446,57.022980 128.606003,58.199898 
	C137.942261,61.551384 141.810974,66.554100 141.595108,74.832291 
	C141.365204,83.648872 136.533890,90.464149 127.885292,92.983994 
	C117.080009,96.132217 106.833160,95.099052 97.904732,86.923920 
z"/>
<path fill="#1C04AE" opacity="1.000000" stroke="none" 
	d="
M190.573212,68.381836 
	C190.589859,76.647743 190.589859,84.452675 190.589859,92.631538 
	C186.302063,92.631538 182.244385,92.631538 177.549744,92.631538 
	C177.549744,88.513382 177.608978,84.248230 177.533173,79.985474 
	C177.456329,75.664841 177.358856,71.338715 177.058701,67.029747 
	C176.816254,63.549122 174.661911,61.507816 171.255432,61.312302 
	C167.867584,61.117859 164.915619,62.278751 163.887238,65.930840 
	C163.355072,67.820686 163.066528,69.836189 163.037628,71.800362 
	C162.937317,78.618553 162.998901,85.439140 162.998901,92.632912 
	C158.829407,92.632912 154.766891,92.632912 150.335327,92.632912 
	C150.335327,71.333702 150.335327,49.788826 150.335327,27.840057 
	C154.209183,27.840057 158.246948,27.840057 162.715363,27.840057 
	C162.715363,36.796665 162.715363,45.863537 162.715363,53.829826 
	C167.372406,52.506664 171.844879,50.381100 176.420609,50.128918 
	C183.973923,49.712631 188.381638,53.927376 189.844666,61.472332 
	C190.254959,63.588299 190.328552,65.769554 190.573212,68.381836 
z"/>
<path fill="#1D06AF" opacity="1.000000" stroke="none" 
	d="
M380.813538,51.275261 
	C385.167755,51.058456 389.144287,51.058456 393.302582,51.058456 
	C393.200439,51.864017 393.246735,52.551380 393.020233,53.132381 
	C386.332367,70.286591 379.585571,87.417892 372.923431,104.582047 
	C370.506378,110.809258 365.743530,113.604141 359.416290,113.729591 
	C355.522308,113.806808 351.613434,113.133125 347.274506,112.758934 
	C347.923950,108.708176 348.439545,105.492233 349.005707,101.960846 
	C350.861328,102.295944 352.427368,102.699745 354.017090,102.845093 
	C361.286896,103.509827 366.144897,96.813713 363.248505,90.070518 
	C357.761200,77.295532 352.203857,64.550644 346.302612,50.932426 
	C350.852844,50.932426 354.745148,50.738110 358.593536,51.063511 
	C359.606964,51.149200 360.882019,52.676643 361.358490,53.823814 
	C364.029938,60.255760 366.483490,66.777992 369.035980,73.259727 
	C369.626434,74.759064 370.312714,76.220657 371.312073,78.522171 
	C374.554962,68.914764 377.495422,60.203415 380.813538,51.275261 
z"/>
<path fill="#1D05AF" opacity="1.000000" stroke="none" 
	d="
M226.385834,50.177872 
	C236.662613,52.550694 243.210892,58.338196 244.722031,68.544380 
	C246.075943,77.688683 243.045090,85.457642 234.907715,90.334335 
	C226.064743,95.633888 216.815506,95.586769 207.979568,90.257240 
	C199.683884,85.253586 196.406982,75.842262 198.933533,65.894501 
	C201.151535,57.161526 209.019287,50.716038 218.486832,50.035221 
	C220.962662,49.857182 223.466949,50.075268 226.385834,50.177872 
M224.583420,61.707615 
	C217.486160,60.569164 213.054214,63.032936 211.499481,68.981148 
	C210.016891,74.653358 212.723862,80.333260 217.699890,81.991173 
	C223.347443,83.872833 228.983902,81.640663 231.074265,76.694611 
	C233.621765,70.666893 231.421173,64.991959 224.583420,61.707615 
z"/>
<path fill="#1B03AE" opacity="1.000000" stroke="none" 
	d="
M333.960632,93.004692 
	C324.327240,93.004692 315.189362,93.004692 305.617310,93.004692 
	C305.617310,89.014381 305.384613,85.354004 305.734558,81.750206 
	C305.869934,80.355942 307.084106,78.817902 308.219666,77.810867 
	C314.185974,72.519775 320.284424,67.377731 327.189545,61.452354 
	C319.676605,61.452354 313.180145,61.452354 306.370667,61.452354 
	C306.370667,57.861473 306.370667,54.770954 306.370667,51.301361 
	C318.106598,51.301361 330.008789,51.301361 342.159546,51.301361 
	C343.187317,58.093887 343.435364,64.292526 336.230988,68.873802 
	C330.705048,72.387764 326.030396,77.240463 319.870667,82.429939 
	C328.363892,82.429939 335.523041,82.429939 342.843567,82.429939 
	C342.843567,86.188164 342.843567,89.308441 342.843567,93.004692 
	C340.007172,93.004692 337.231659,93.004692 333.960632,93.004692 
z"/>
<path fill="#F9F8FD" opacity="1.000000" stroke="none" 
	d="
M286.576904,72.767876 
	C285.025177,80.130882 281.032349,83.327698 274.804626,82.545799 
	C269.094910,81.828934 265.838745,77.940521 265.865753,71.871315 
	C265.892334,65.910263 269.328644,61.898548 274.952057,61.263531 
	C280.811584,60.601845 285.195740,63.907677 286.367828,69.904869 
	C286.526428,70.716438 286.536774,71.556984 286.576904,72.767876 
z"/>
<path fill="#F9F8FD" opacity="1.000000" stroke="none" 
	d="
M224.960632,61.804489 
	C231.421173,64.991959 233.621765,70.666893 231.074265,76.694611 
	C228.983902,81.640663 223.347443,83.872833 217.699890,81.991173 
	C212.723862,80.333260 210.016891,74.653358 211.499481,68.981148 
	C213.054214,63.032936 217.486160,60.569164 224.960632,61.804489 
z"/>
</svg>